<svg xmlns="http://www.w3.org/2000/svg" viewBox="0 0 178.1 103.63"><g id="Layer_2" data-name="Layer 2"><g id="Layer_1-2" data-name="Layer 1"><path d="M88.72,51.83V1.39c0-1.31,0-1.31,1.27-1.31h18.53c1.12,0,1.13,0,1.13,1.14V102.5c0,1.13,0,1.13-1.11,1.13H89.85c-1.12,0-1.13,0-1.13-1.12Z"/><path d="M178.1,51.83q0,25.35,0,50.69c0,1.11,0,1.11-1.09,1.11H158.23c-1,0-1,0-1-1V1.13c0-1,0-1,1.05-1H177c1.07,0,1.07,0,1.07,1.07Q178.11,26.49,178.1,51.83Z"/><path d="M0,51.92V1.32C0,.09,0,.08,1.25.08H19.71c1.12,0,1.13,0,1.13,1.13V102.49c0,1.14,0,1.14-1.17,1.14H1.21c-1.21,0-1.21,0-1.21-1.18Z"/><path d="M133.47.08c5.57,0,11.15,0,16.73,0,.78,0,1,.2,1,1a17.08,17.08,0,0,1-3.76,10.13,16.91,16.91,0,0,1-11.95,6.64,17.25,17.25,0,0,1-14.56-5.15,17.69,17.69,0,0,1-5-9.94c-.11-.67-.13-1.34-.19-2s.35-.66.81-.66h16.89Z"/><path d="M34.1,52.79V36.29c0-1.24,0-1.27,1.27-1.16A17.57,17.57,0,0,1,48.18,42a17.71,17.71,0,0,1-.32,22.1,17.59,17.59,0,0,1-10.53,6.19c-.79.16-1.6.17-2.4.26s-.85-.2-.84-.84c0-3.34,0-6.68,0-10Z"/><path d="M33.07,0H68.14c1,0,1,0,1,1V20.79l-.22.18L33,.24Z"/><path d="M33.15,103.16l4.35-2.53,15.94-9.22L66,84.21c.75-.43,1.48-.87,2.22-1.31s1-.39,1,.54c0,3.5,0,7,0,10.49,0,2.86,0,5.73,0,8.6,0,.63-.17.86-.84.86q-17.25,0-34.49,0c-.21,0-.41,0-.62,0Z"/></g></g></svg>